<svg width="36" height="33" viewBox="0 0 36 33" fill="none" xmlns="http://www.w3.org/2000/svg">
<path d="M22.881 12C23.7761 12 24.6346 12.3556 25.2675 12.9885C25.9004 13.6215 26.256 14.4799 26.256 15.375V24.7485C26.256 26.9369 25.3866 29.0357 23.8392 30.5832C22.2917 32.1306 20.1929 33 18.0045 33C15.8161 33 13.7173 32.1306 12.1698 30.5832C10.6224 29.0357 9.753 26.9369 9.753 24.7485V15.375C9.753 14.4799 10.1086 13.6215 10.7415 12.9885C11.3745 12.3556 12.2329 12 13.128 12H22.881ZM22.881 14.25H13.128C12.8296 14.25 12.5435 14.3685 12.3325 14.5795C12.1215 14.7905 12.003 15.0766 12.003 15.375V24.7485C12.003 26.3402 12.6353 27.8667 13.7608 28.9922C14.8863 30.1177 16.4128 30.75 18.0045 30.75C19.5962 30.75 21.1227 30.1177 22.2482 28.9922C23.3737 27.8667 24.006 26.3402 24.006 24.7485V15.375C24.006 15.0766 23.8875 14.7905 23.6765 14.5795C23.4655 14.3685 23.1794 14.25 22.881 14.25ZM3.375 12H9.609C9.00678 12.627 8.5836 13.404 8.3835 14.25H3.375C3.07663 14.25 2.79048 14.3685 2.57951 14.5795C2.36853 14.7905 2.25 15.0766 2.25 15.375V23.2485C2.2498 24.0011 2.43831 24.7418 2.79829 25.4028C3.15827 26.0637 3.67823 26.6239 4.31061 27.032C4.94299 27.4401 5.6676 27.6831 6.41816 27.7388C7.16872 27.7946 7.92128 27.6612 8.607 27.351C8.8065 28.086 9.093 28.785 9.453 29.439C8.4253 29.8877 7.30203 30.0734 6.1846 29.9792C5.06718 29.885 3.99081 29.514 3.05269 28.8997C2.11457 28.2853 1.34424 27.447 0.81128 26.4604C0.278315 25.4737 -0.00050444 24.3699 6.85114e-07 23.2485V15.375C6.85114e-07 14.4799 0.35558 13.6215 0.988515 12.9885C1.62145 12.3556 2.4799 12 3.375 12ZM32.625 12C33.5201 12 34.3786 12.3556 35.0115 12.9885C35.6444 13.6215 36 14.4799 36 15.375V23.25C36.0005 24.3707 35.7218 25.474 35.1893 26.4601C34.6567 27.4462 33.887 28.2843 32.9496 28.8985C32.0122 29.5128 30.9366 29.884 29.8199 29.9786C28.7031 30.0732 27.5804 29.8883 26.553 29.4405L26.637 29.2875C26.958 28.6785 27.2175 28.032 27.4035 27.354C28.0888 27.6624 28.8405 27.7942 29.5899 27.7374C30.3393 27.6807 31.0625 27.4371 31.6936 27.0291C32.3246 26.621 32.8434 26.0613 33.2027 25.4012C33.5619 24.7411 33.75 24.0015 33.75 23.25V15.375C33.75 15.0769 33.6317 14.791 33.421 14.58C33.2104 14.3691 32.9246 14.2504 32.6265 14.25H27.627C27.4265 13.4038 27.0028 12.6268 26.4 12H32.6265H32.625ZM18 0C18.6894 -1.45289e-08 19.3721 0.135795 20.0091 0.399632C20.646 0.66347 21.2248 1.05018 21.7123 1.53769C22.1998 2.0252 22.5865 2.60395 22.8504 3.24091C23.1142 3.87787 23.25 4.56056 23.25 5.25C23.25 5.93944 23.1142 6.62213 22.8504 7.25909C22.5865 7.89605 22.1998 8.4748 21.7123 8.96231C21.2248 9.44982 20.646 9.83653 20.0091 10.1004C19.3721 10.3642 18.6894 10.5 18 10.5C16.6076 10.5 15.2723 9.94688 14.2877 8.96231C13.3031 7.97774 12.75 6.64239 12.75 5.25C12.75 3.85761 13.3031 2.52226 14.2877 1.53769C15.2723 0.553124 16.6076 2.93424e-08 18 0ZM30.0045 1.5C30.5954 1.5 31.1806 1.6164 31.7266 1.84254C32.2725 2.06869 32.7686 2.40016 33.1865 2.81802C33.6043 3.23588 33.9358 3.73196 34.162 4.27792C34.3881 4.82389 34.5045 5.40905 34.5045 6C34.5045 6.59095 34.3881 7.17611 34.162 7.72208C33.9358 8.26804 33.6043 8.76412 33.1865 9.18198C32.7686 9.59984 32.2725 9.93131 31.7266 10.1575C31.1806 10.3836 30.5954 10.5 30.0045 10.5C28.811 10.5 27.6664 10.0259 26.8225 9.18198C25.9786 8.33807 25.5045 7.19347 25.5045 6C25.5045 4.80653 25.9786 3.66193 26.8225 2.81802C27.6664 1.97411 28.811 1.5 30.0045 1.5ZM5.9955 1.5C6.58645 1.5 7.17161 1.6164 7.71758 1.84254C8.26354 2.06869 8.75962 2.40016 9.17748 2.81802C9.59535 3.23588 9.92681 3.73196 10.153 4.27792C10.3791 4.82389 10.4955 5.40905 10.4955 6C10.4955 6.59095 10.3791 7.17611 10.153 7.72208C9.92681 8.26804 9.59535 8.76412 9.17748 9.18198C8.75962 9.59984 8.26354 9.93131 7.71758 10.1575C7.17161 10.3836 6.58645 10.5 5.9955 10.5C4.80203 10.5 3.65743 10.0259 2.81352 9.18198C1.96961 8.33807 1.4955 7.19347 1.4955 6C1.4955 4.80653 1.96961 3.66193 2.81352 2.81802C3.65743 1.97411 4.80203 1.5 5.9955 1.5ZM18 2.25C17.2044 2.25 16.4413 2.56607 15.8787 3.12868C15.3161 3.69129 15 4.45435 15 5.25C15 6.04565 15.3161 6.80871 15.8787 7.37132C16.4413 7.93393 17.2044 8.25 18 8.25C18.7956 8.25 19.5587 7.93393 20.1213 7.37132C20.6839 6.80871 21 6.04565 21 5.25C21 4.45435 20.6839 3.69129 20.1213 3.12868C19.5587 2.56607 18.7956 2.25 18 2.25ZM30.0045 3.75C29.709 3.75 29.4164 3.8082 29.1435 3.92127C28.8705 4.03434 28.6224 4.20008 28.4135 4.40901C28.2046 4.61794 28.0388 4.86598 27.9258 5.13896C27.8127 5.41194 27.7545 5.70453 27.7545 6C27.7545 6.29547 27.8127 6.58806 27.9258 6.86104C28.0388 7.13402 28.2046 7.38206 28.4135 7.59099C28.6224 7.79992 28.8705 7.96566 29.1435 8.07873C29.4164 8.1918 29.709 8.25 30.0045 8.25C30.6012 8.25 31.1735 8.01295 31.5955 7.59099C32.0174 7.16903 32.2545 6.59674 32.2545 6C32.2545 5.40326 32.0174 4.83097 31.5955 4.40901C31.1735 3.98705 30.6012 3.75 30.0045 3.75ZM5.9955 3.75C5.70003 3.75 5.40745 3.8082 5.13446 3.92127C4.86148 4.03434 4.61344 4.20008 4.40451 4.40901C4.19558 4.61794 4.02984 4.86598 3.91677 5.13896C3.8037 5.41194 3.7455 5.70453 3.7455 6C3.7455 6.29547 3.8037 6.58806 3.91677 6.86104C4.02984 7.13402 4.19558 7.38206 4.40451 7.59099C4.61344 7.79992 4.86148 7.96566 5.13446 8.07873C5.40745 8.1918 5.70003 8.25 5.9955 8.25C6.59224 8.25 7.16453 8.01295 7.58649 7.59099C8.00845 7.16903 8.2455 6.59674 8.2455 6C8.2455 5.40326 8.00845 4.83097 7.58649 4.40901C7.16453 3.98705 6.59224 3.75 5.9955 3.75Z" fill="white"/>
</svg>
